<?xml version="1.0" encoding="utf-8"?>
<svg width="148" height="33" viewBox="-24.643 5.594 133.176 100.413" xmlns="http://www.w3.org/2000/svg">
  <defs/>
  <path d="M 52.011 61.81 C 57.037 60.482 60.732 56.037 60.732 50.758 C 60.732 44.539 55.607 39.478 49.218 39.306 L 49.218 39.3 L 30.809 39.3 L 23.159 39.3 L 29.509 46.936 L 30.809 46.936 L 30.809 46.939 L 48.937 46.939 C 51.092 46.969 52.83 48.667 52.83 50.757 C 52.83 52.866 51.061 54.576 48.879 54.576 L 45.997 54.576 L 35.859 54.576 L 50.594 72.3 L 60.731 72.3 L 52.011 61.81 Z" style="fill: rgb(255, 255, 255);"/>
  <path d="M 31.695 72.297 C 34.576 72.297 36.912 70.04 36.912 67.255 C 36.912 64.471 34.576 62.214 31.695 62.214 C 28.815 62.214 26.479 64.471 26.479 67.255 C 26.479 70.04 28.815 72.297 31.695 72.297 Z" style="fill: rgb(255, 255, 255);"/>
</svg>